<svg xmlns="http://www.w3.org/2000/svg" width="523" height="492" viewBox="0 0 523 492" fill="none"><circle cx="263" cy="264.609" r="207.413" stroke="#151F48" stroke-width="1.26087"></circle><path d="M262.957 0L384.162 209.935H141.751L262.957 0Z" fill="#151F48"></path><path d="M383.07 209.305H142.843L262.956 1.26172L383.07 209.305Z" stroke="white" stroke-opacity="0.5" stroke-width="1.26087"></path><path d="M139.957 212L261.162 421.935H18.7506L139.957 212Z" fill="#151F48"></path><path d="M260.07 421.305H19.8428L139.956 213.262L260.07 421.305Z" stroke="white" stroke-opacity="0.5" stroke-width="1.26087"></path><path d="M382.957 212L504.162 421.935H261.751L382.957 212Z" fill="#151F48"></path><path d="M503.07 421.305H262.843L382.956 213.262L503.07 421.305Z" stroke="white" stroke-opacity="0.5" stroke-width="1.26087"></path><path d="M261.957 420.913L383.162 210.978H140.751L261.957 420.913Z" fill="#4B648C"></path><path d="M222.63 298V271.41H212.345V268.735H236.009V271.41H225.724V298H222.63ZM243.909 298.209C243.296 298.209 242.766 297.986 242.32 297.54C241.902 297.094 241.693 296.551 241.693 295.91C241.693 295.241 241.902 294.697 242.32 294.279C242.766 293.861 243.296 293.652 243.909 293.652C244.522 293.652 245.038 293.861 245.456 294.279C245.902 294.697 246.125 295.241 246.125 295.91C246.125 296.551 245.902 297.094 245.456 297.54C245.038 297.986 244.522 298.209 243.909 298.209ZM257.702 298V268.735H268.656C271.136 268.735 273.268 269.139 275.052 269.947C276.836 270.727 278.202 271.87 279.149 273.375C280.125 274.852 280.613 276.65 280.613 278.768C280.613 280.831 280.125 282.615 279.149 284.12C278.202 285.597 276.836 286.74 275.052 287.548C273.268 288.328 271.136 288.719 268.656 288.719H259.416L260.796 287.297V298H257.702ZM277.686 298L270.161 287.381H273.505L281.073 298H277.686ZM260.796 287.548L259.416 286.085H268.572C271.499 286.085 273.714 285.444 275.219 284.162C276.752 282.88 277.519 281.082 277.519 278.768C277.519 276.427 276.752 274.616 275.219 273.333C273.714 272.051 271.499 271.41 268.572 271.41H259.416L260.796 269.947V287.548ZM292.179 298.209C291.566 298.209 291.036 297.986 290.59 297.54C290.172 297.094 289.963 296.551 289.963 295.91C289.963 295.241 290.172 294.697 290.59 294.279C291.036 293.861 291.566 293.652 292.179 293.652C292.792 293.652 293.308 293.861 293.726 294.279C294.172 294.697 294.395 295.241 294.395 295.91C294.395 296.551 294.172 297.094 293.726 297.54C293.308 297.986 292.792 298.209 292.179 298.209ZM305.972 298V268.735H309.066V298H305.972Z" fill="white"></path><path d="M338.813 354.121C337.764 354.121 336.755 353.953 335.787 353.617C334.832 353.267 334.092 352.823 333.568 352.285L334.153 351.135C334.65 351.619 335.316 352.03 336.15 352.366C336.997 352.689 337.885 352.85 338.813 352.85C339.701 352.85 340.42 352.742 340.972 352.527C341.536 352.299 341.947 351.996 342.202 351.619C342.471 351.243 342.606 350.826 342.606 350.369C342.606 349.817 342.444 349.373 342.122 349.037C341.812 348.701 341.402 348.439 340.891 348.25C340.38 348.049 339.815 347.874 339.196 347.726C338.578 347.578 337.959 347.423 337.34 347.262C336.722 347.087 336.15 346.858 335.626 346.576C335.114 346.294 334.698 345.924 334.375 345.466C334.065 344.996 333.911 344.384 333.911 343.631C333.911 342.931 334.092 342.292 334.455 341.714C334.832 341.122 335.404 340.652 336.17 340.302C336.937 339.939 337.919 339.757 339.116 339.757C339.909 339.757 340.696 339.872 341.476 340.1C342.256 340.315 342.928 340.618 343.493 341.008L342.989 342.198C342.384 341.795 341.738 341.499 341.052 341.311C340.38 341.122 339.728 341.028 339.095 341.028C338.248 341.028 337.549 341.142 336.997 341.371C336.446 341.6 336.036 341.909 335.767 342.299C335.511 342.676 335.383 343.106 335.383 343.59C335.383 344.142 335.538 344.586 335.847 344.922C336.17 345.258 336.587 345.52 337.098 345.709C337.623 345.897 338.194 346.065 338.813 346.213C339.432 346.361 340.044 346.522 340.649 346.697C341.267 346.872 341.832 347.101 342.343 347.383C342.868 347.652 343.285 348.015 343.594 348.472C343.917 348.93 344.078 349.528 344.078 350.268C344.078 350.954 343.89 351.593 343.514 352.184C343.137 352.763 342.559 353.233 341.779 353.597C341.012 353.946 340.023 354.121 338.813 354.121ZM353.565 354.101C352.543 354.101 351.621 353.872 350.801 353.415C349.994 352.944 349.355 352.305 348.884 351.498C348.414 350.678 348.178 349.743 348.178 348.694C348.178 347.632 348.414 346.697 348.884 345.89C349.355 345.083 349.994 344.451 350.801 343.994C351.608 343.536 352.529 343.308 353.565 343.308C354.614 343.308 355.542 343.536 356.349 343.994C357.169 344.451 357.808 345.083 358.265 345.89C358.736 346.697 358.971 347.632 358.971 348.694C358.971 349.743 358.736 350.678 358.265 351.498C357.808 352.305 357.169 352.944 356.349 353.415C355.528 353.872 354.6 354.101 353.565 354.101ZM353.565 352.83C354.331 352.83 355.011 352.662 355.602 352.326C356.194 351.976 356.658 351.492 356.994 350.873C357.344 350.241 357.519 349.515 357.519 348.694C357.519 347.86 357.344 347.134 356.994 346.515C356.658 345.897 356.194 345.419 355.602 345.083C355.011 344.733 354.338 344.559 353.585 344.559C352.832 344.559 352.159 344.733 351.568 345.083C350.976 345.419 350.505 345.897 350.155 346.515C349.806 347.134 349.631 347.86 349.631 348.694C349.631 349.515 349.806 350.241 350.155 350.873C350.505 351.492 350.976 351.976 351.568 352.326C352.159 352.662 352.825 352.83 353.565 352.83ZM364.115 354V339.031H365.547V354H364.115ZM376.13 354.101C375.228 354.101 374.442 353.933 373.769 353.597C373.097 353.26 372.572 352.756 372.196 352.083C371.832 351.411 371.651 350.57 371.651 349.562V343.409H373.083V349.4C373.083 350.53 373.359 351.384 373.91 351.962C374.475 352.527 375.262 352.81 376.271 352.81C377.01 352.81 377.649 352.662 378.187 352.366C378.739 352.057 379.156 351.613 379.438 351.034C379.734 350.456 379.882 349.763 379.882 348.957V343.409H381.314V354H379.942V351.095L380.164 351.619C379.828 352.4 379.304 353.011 378.591 353.455C377.891 353.886 377.071 354.101 376.13 354.101ZM391.923 354.101C390.874 354.101 389.933 353.872 389.099 353.415C388.278 352.944 387.633 352.305 387.162 351.498C386.691 350.678 386.456 349.743 386.456 348.694C386.456 347.632 386.691 346.697 387.162 345.89C387.633 345.083 388.278 344.451 389.099 343.994C389.933 343.536 390.874 343.308 391.923 343.308C392.824 343.308 393.638 343.483 394.364 343.832C395.09 344.182 395.662 344.707 396.079 345.406L395.01 346.132C394.647 345.594 394.196 345.197 393.658 344.942C393.12 344.686 392.535 344.559 391.903 344.559C391.15 344.559 390.471 344.733 389.865 345.083C389.26 345.419 388.783 345.897 388.433 346.515C388.083 347.134 387.909 347.86 387.909 348.694C387.909 349.528 388.083 350.254 388.433 350.873C388.783 351.492 389.26 351.976 389.865 352.326C390.471 352.662 391.15 352.83 391.903 352.83C392.535 352.83 393.12 352.702 393.658 352.447C394.196 352.191 394.647 351.801 395.01 351.277L396.079 352.003C395.662 352.689 395.09 353.213 394.364 353.576C393.638 353.926 392.824 354.101 391.923 354.101ZM391.076 358.438C390.74 358.438 390.43 358.398 390.148 358.317C389.879 358.237 389.623 358.122 389.381 357.974L389.724 357.208C389.926 357.329 390.134 357.423 390.35 357.49C390.578 357.557 390.814 357.591 391.056 357.591C391.459 357.591 391.769 357.504 391.984 357.329C392.199 357.167 392.306 356.939 392.306 356.643C392.306 356.374 392.199 356.152 391.984 355.977C391.782 355.802 391.473 355.715 391.056 355.715H390.592L391.076 353.879H391.943L391.641 355.049C392.192 355.089 392.616 355.258 392.912 355.553C393.208 355.863 393.356 356.239 393.356 356.683C393.356 357.221 393.14 357.645 392.71 357.954C392.293 358.277 391.748 358.438 391.076 358.438ZM407.749 354V351.66L407.689 351.277V347.363C407.689 346.462 407.433 345.769 406.922 345.285C406.424 344.801 405.678 344.559 404.683 344.559C403.997 344.559 403.344 344.673 402.726 344.902C402.107 345.13 401.583 345.433 401.152 345.809L400.507 344.74C401.045 344.283 401.69 343.933 402.443 343.691C403.197 343.436 403.99 343.308 404.824 343.308C406.196 343.308 407.252 343.651 407.991 344.337C408.744 345.009 409.121 346.038 409.121 347.423V354H407.749ZM404.098 354.101C403.304 354.101 402.612 353.973 402.02 353.718C401.441 353.449 400.998 353.085 400.688 352.628C400.379 352.157 400.224 351.619 400.224 351.014C400.224 350.463 400.352 349.965 400.608 349.521C400.877 349.064 401.307 348.701 401.899 348.432C402.504 348.15 403.311 348.008 404.32 348.008H407.971V349.078H404.36C403.338 349.078 402.625 349.259 402.221 349.622C401.831 349.985 401.636 350.436 401.636 350.974C401.636 351.579 401.872 352.063 402.343 352.426C402.813 352.79 403.472 352.971 404.32 352.971C405.127 352.971 405.819 352.79 406.397 352.426C406.989 352.05 407.42 351.512 407.689 350.813L408.011 351.801C407.742 352.5 407.272 353.059 406.599 353.475C405.94 353.892 405.106 354.101 404.098 354.101ZM406.236 341.633C405.927 341.633 405.651 341.566 405.409 341.432C405.167 341.297 404.945 341.142 404.743 340.968C404.555 340.779 404.367 340.618 404.178 340.483C403.99 340.336 403.795 340.262 403.593 340.262C403.284 340.262 403.035 340.376 402.847 340.605C402.672 340.833 402.571 341.149 402.544 341.553H401.677C401.704 340.88 401.879 340.342 402.201 339.939C402.538 339.535 402.968 339.334 403.492 339.334C403.802 339.334 404.077 339.408 404.32 339.555C404.575 339.69 404.797 339.851 404.985 340.04C405.187 340.214 405.375 340.369 405.55 340.504C405.738 340.638 405.933 340.705 406.135 340.705C406.445 340.705 406.693 340.598 406.882 340.383C407.07 340.154 407.171 339.845 407.184 339.455H408.052C408.038 340.1 407.863 340.625 407.527 341.028C407.191 341.432 406.761 341.633 406.236 341.633ZM419.548 354.101C418.526 354.101 417.604 353.872 416.784 353.415C415.977 352.944 415.338 352.305 414.867 351.498C414.397 350.678 414.161 349.743 414.161 348.694C414.161 347.632 414.397 346.697 414.867 345.89C415.338 345.083 415.977 344.451 416.784 343.994C417.591 343.536 418.512 343.308 419.548 343.308C420.597 343.308 421.525 343.536 422.332 343.994C423.152 344.451 423.791 345.083 424.248 345.89C424.719 346.697 424.954 347.632 424.954 348.694C424.954 349.743 424.719 350.678 424.248 351.498C423.791 352.305 423.152 352.944 422.332 353.415C421.511 353.872 420.583 354.101 419.548 354.101ZM419.548 352.83C420.314 352.83 420.994 352.662 421.585 352.326C422.177 351.976 422.641 351.492 422.977 350.873C423.327 350.241 423.502 349.515 423.502 348.694C423.502 347.86 423.327 347.134 422.977 346.515C422.641 345.897 422.177 345.419 421.585 345.083C420.994 344.733 420.321 344.559 419.568 344.559C418.815 344.559 418.142 344.733 417.551 345.083C416.959 345.419 416.488 345.897 416.138 346.515C415.789 347.134 415.614 347.86 415.614 348.694C415.614 349.515 415.789 350.241 416.138 350.873C416.488 351.492 416.959 351.976 417.551 352.326C418.142 352.662 418.808 352.83 419.548 352.83ZM325.46 379V364.878H326.953V379H325.46ZM338.871 368.308C339.732 368.308 340.485 368.476 341.13 368.812C341.789 369.135 342.3 369.633 342.664 370.305C343.04 370.978 343.228 371.825 343.228 372.847V379H341.796V372.988C341.796 371.872 341.514 371.031 340.949 370.466C340.397 369.888 339.617 369.599 338.609 369.599C337.855 369.599 337.196 369.754 336.632 370.063C336.08 370.359 335.65 370.796 335.34 371.374C335.045 371.939 334.897 372.625 334.897 373.432V379H333.464V368.409H334.836V371.314L334.614 370.769C334.95 370.002 335.488 369.404 336.228 368.974C336.968 368.53 337.849 368.308 338.871 368.308ZM353.533 379.101C352.524 379.101 351.616 378.872 350.809 378.415C350.016 377.958 349.391 377.326 348.933 376.519C348.476 375.698 348.247 374.757 348.247 373.694C348.247 372.618 348.476 371.677 348.933 370.87C349.391 370.063 350.016 369.438 350.809 368.994C351.616 368.536 352.524 368.308 353.533 368.308C354.461 368.308 355.288 368.516 356.014 368.933C356.754 369.35 357.339 369.962 357.769 370.769C358.213 371.563 358.435 372.538 358.435 373.694C358.435 374.837 358.22 375.813 357.79 376.619C357.359 377.426 356.774 378.045 356.034 378.475C355.308 378.892 354.474 379.101 353.533 379.101ZM353.634 377.83C354.387 377.83 355.059 377.662 355.651 377.326C356.256 376.976 356.727 376.492 357.063 375.873C357.413 375.241 357.588 374.515 357.588 373.694C357.588 372.86 357.413 372.134 357.063 371.515C356.727 370.897 356.256 370.419 355.651 370.083C355.059 369.733 354.387 369.559 353.634 369.559C352.894 369.559 352.228 369.733 351.637 370.083C351.045 370.419 350.574 370.897 350.224 371.515C349.875 372.134 349.7 372.86 349.7 373.694C349.7 374.515 349.875 375.241 350.224 375.873C350.574 376.492 351.045 376.976 351.637 377.326C352.228 377.662 352.894 377.83 353.634 377.83ZM357.628 379V375.813L357.769 373.674L357.568 371.536V364.031H359V379H357.628ZM365.208 379V368.409H366.641V379H365.208ZM365.935 366.069C365.639 366.069 365.39 365.968 365.188 365.766C364.986 365.564 364.885 365.322 364.885 365.04C364.885 364.757 364.986 364.522 365.188 364.334C365.39 364.132 365.639 364.031 365.935 364.031C366.23 364.031 366.479 364.125 366.681 364.313C366.883 364.502 366.984 364.737 366.984 365.019C366.984 365.315 366.883 365.564 366.681 365.766C366.493 365.968 366.244 366.069 365.935 366.069ZM375.569 379L370.868 368.409H372.361L376.678 378.233H375.972L380.35 368.409H381.762L377.041 379H375.569ZM385.998 379V368.409H387.431V379H385.998ZM386.725 366.069C386.429 366.069 386.18 365.968 385.978 365.766C385.777 365.564 385.676 365.322 385.676 365.04C385.676 364.757 385.777 364.522 385.978 364.334C386.18 364.132 386.429 364.031 386.725 364.031C387.021 364.031 387.269 364.125 387.471 364.313C387.673 364.502 387.774 364.737 387.774 365.019C387.774 365.315 387.673 365.564 387.471 365.766C387.283 365.968 387.034 366.069 386.725 366.069ZM397.852 379.101C396.843 379.101 395.935 378.872 395.128 378.415C394.335 377.958 393.709 377.326 393.252 376.519C392.795 375.698 392.566 374.757 392.566 373.694C392.566 372.618 392.795 371.677 393.252 370.87C393.709 370.063 394.335 369.438 395.128 368.994C395.935 368.536 396.843 368.308 397.852 368.308C398.78 368.308 399.607 368.516 400.333 368.933C401.073 369.35 401.658 369.962 402.088 370.769C402.532 371.563 402.754 372.538 402.754 373.694C402.754 374.837 402.539 375.813 402.108 376.619C401.678 377.426 401.093 378.045 400.353 378.475C399.627 378.892 398.793 379.101 397.852 379.101ZM397.953 377.83C398.706 377.83 399.378 377.662 399.97 377.326C400.575 376.976 401.046 376.492 401.382 375.873C401.732 375.241 401.907 374.515 401.907 373.694C401.907 372.86 401.732 372.134 401.382 371.515C401.046 370.897 400.575 370.419 399.97 370.083C399.378 369.733 398.706 369.559 397.953 369.559C397.213 369.559 396.547 369.733 395.955 370.083C395.364 370.419 394.893 370.897 394.543 371.515C394.193 372.134 394.019 372.86 394.019 373.694C394.019 374.515 394.193 375.241 394.543 375.873C394.893 376.492 395.364 376.976 395.955 377.326C396.547 377.662 397.213 377.83 397.953 377.83ZM401.947 379V375.813L402.088 373.674L401.886 371.536V364.031H403.319V379H401.947ZM413.905 379.101C413.004 379.101 412.217 378.933 411.544 378.597C410.872 378.26 410.347 377.756 409.971 377.083C409.608 376.411 409.426 375.57 409.426 374.562V368.409H410.859V374.4C410.859 375.53 411.134 376.384 411.686 376.962C412.251 377.527 413.037 377.81 414.046 377.81C414.786 377.81 415.425 377.662 415.963 377.366C416.514 377.057 416.931 376.613 417.213 376.034C417.509 375.456 417.657 374.763 417.657 373.957V368.409H419.089V379H417.718V376.095L417.94 376.619C417.603 377.4 417.079 378.011 416.366 378.455C415.667 378.886 414.846 379.101 413.905 379.101ZM431.938 379V376.66L431.877 376.277V372.363C431.877 371.462 431.622 370.769 431.111 370.285C430.613 369.801 429.867 369.559 428.871 369.559C428.185 369.559 427.533 369.673 426.914 369.902C426.296 370.13 425.771 370.433 425.341 370.809L424.695 369.74C425.233 369.283 425.879 368.933 426.632 368.691C427.385 368.436 428.179 368.308 429.013 368.308C430.384 368.308 431.44 368.651 432.18 369.337C432.933 370.009 433.31 371.038 433.31 372.423V379H431.938ZM428.286 379.101C427.493 379.101 426.8 378.973 426.208 378.718C425.63 378.449 425.186 378.085 424.877 377.628C424.568 377.157 424.413 376.619 424.413 376.014C424.413 375.463 424.541 374.965 424.796 374.521C425.065 374.064 425.496 373.701 426.087 373.432C426.693 373.15 427.499 373.008 428.508 373.008H432.16V374.078H428.549C427.526 374.078 426.814 374.259 426.41 374.622C426.02 374.985 425.825 375.436 425.825 375.974C425.825 376.579 426.06 377.063 426.531 377.426C427.002 377.79 427.661 377.971 428.508 377.971C429.315 377.971 430.008 377.79 430.586 377.426C431.178 377.05 431.608 376.512 431.877 375.813L432.2 376.801C431.931 377.5 431.46 378.059 430.788 378.475C430.129 378.892 429.295 379.101 428.286 379.101ZM439.419 379V364.031H440.851V379H439.419Z" fill="white"></path><path d="M113.221 358.121C112.159 358.121 111.177 357.946 110.276 357.597C109.375 357.233 108.595 356.729 107.936 356.083C107.277 355.438 106.759 354.678 106.382 353.804C106.019 352.93 105.838 351.975 105.838 350.939C105.838 349.904 106.019 348.949 106.382 348.074C106.759 347.2 107.277 346.44 107.936 345.795C108.608 345.149 109.395 344.652 110.296 344.302C111.197 343.939 112.179 343.757 113.242 343.757C114.264 343.757 115.225 343.932 116.126 344.282C117.027 344.618 117.787 345.129 118.406 345.815L117.458 346.763C116.88 346.171 116.241 345.748 115.541 345.492C114.842 345.223 114.089 345.089 113.282 345.089C112.435 345.089 111.648 345.237 110.922 345.533C110.195 345.815 109.563 346.225 109.025 346.763C108.487 347.288 108.064 347.906 107.754 348.619C107.458 349.318 107.31 350.092 107.31 350.939C107.31 351.786 107.458 352.566 107.754 353.279C108.064 353.979 108.487 354.597 109.025 355.135C109.563 355.66 110.195 356.07 110.922 356.366C111.648 356.648 112.435 356.79 113.282 356.79C114.089 356.79 114.842 356.655 115.541 356.386C116.241 356.117 116.88 355.687 117.458 355.095L118.406 356.043C117.787 356.729 117.027 357.247 116.126 357.597C115.225 357.946 114.257 358.121 113.221 358.121ZM129.985 358V355.66L129.924 355.277V351.363C129.924 350.462 129.669 349.769 129.157 349.285C128.66 348.801 127.913 348.559 126.918 348.559C126.232 348.559 125.58 348.673 124.961 348.902C124.343 349.13 123.818 349.433 123.388 349.809L122.742 348.74C123.28 348.283 123.926 347.933 124.679 347.691C125.432 347.436 126.226 347.308 127.059 347.308C128.431 347.308 129.487 347.651 130.227 348.337C130.98 349.009 131.356 350.038 131.356 351.423V358H129.985ZM126.333 358.101C125.54 358.101 124.847 357.973 124.255 357.718C123.677 357.449 123.233 357.085 122.924 356.628C122.614 356.157 122.46 355.619 122.46 355.014C122.46 354.463 122.587 353.965 122.843 353.521C123.112 353.064 123.542 352.701 124.134 352.432C124.739 352.15 125.546 352.008 126.555 352.008H130.207V353.078H126.595C125.573 353.078 124.86 353.259 124.457 353.622C124.067 353.985 123.872 354.436 123.872 354.974C123.872 355.579 124.107 356.063 124.578 356.426C125.049 356.79 125.708 356.971 126.555 356.971C127.362 356.971 128.055 356.79 128.633 356.426C129.225 356.05 129.655 355.512 129.924 354.813L130.247 355.801C129.978 356.5 129.507 357.059 128.835 357.475C128.176 357.892 127.342 358.101 126.333 358.101ZM141.844 358.101C140.943 358.101 140.156 357.933 139.483 357.597C138.811 357.26 138.286 356.756 137.91 356.083C137.547 355.411 137.365 354.57 137.365 353.562V347.409H138.797V353.4C138.797 354.53 139.073 355.384 139.625 355.962C140.189 356.527 140.976 356.81 141.985 356.81C142.725 356.81 143.363 356.662 143.901 356.366C144.453 356.057 144.87 355.613 145.152 355.034C145.448 354.456 145.596 353.763 145.596 352.957V347.409H147.028V358H145.657V355.095L145.878 355.619C145.542 356.4 145.018 357.011 144.305 357.455C143.606 357.886 142.785 358.101 141.844 358.101ZM156.084 358.101C155.21 358.101 154.383 357.98 153.603 357.738C152.823 357.482 152.211 357.166 151.767 356.79L152.412 355.66C152.843 355.983 153.394 356.265 154.067 356.507C154.739 356.736 155.445 356.85 156.185 356.85C157.194 356.85 157.92 356.695 158.364 356.386C158.807 356.063 159.029 355.64 159.029 355.115C159.029 354.725 158.902 354.422 158.646 354.207C158.404 353.979 158.081 353.811 157.678 353.703C157.274 353.582 156.824 353.481 156.326 353.4C155.828 353.32 155.331 353.226 154.833 353.118C154.349 353.01 153.905 352.856 153.502 352.654C153.098 352.439 152.769 352.15 152.513 351.786C152.271 351.423 152.15 350.939 152.15 350.334C152.15 349.756 152.311 349.238 152.634 348.781C152.957 348.323 153.428 347.967 154.046 347.711C154.679 347.442 155.445 347.308 156.346 347.308C157.032 347.308 157.718 347.402 158.404 347.59C159.09 347.765 159.655 348 160.099 348.296L159.473 349.446C159.002 349.123 158.498 348.895 157.96 348.76C157.422 348.612 156.884 348.538 156.346 348.538C155.391 348.538 154.685 348.707 154.228 349.043C153.784 349.366 153.562 349.782 153.562 350.294C153.562 350.697 153.683 351.013 153.925 351.242C154.181 351.47 154.51 351.652 154.914 351.786C155.331 351.907 155.781 352.008 156.266 352.089C156.763 352.17 157.254 352.271 157.738 352.392C158.236 352.499 158.686 352.654 159.09 352.856C159.507 353.044 159.836 353.32 160.078 353.683C160.334 354.032 160.462 354.496 160.462 355.075C160.462 355.693 160.287 356.231 159.937 356.689C159.601 357.133 159.103 357.482 158.444 357.738C157.799 357.98 157.012 358.101 156.084 358.101ZM171.946 358V355.66L171.886 355.277V351.363C171.886 350.462 171.63 349.769 171.119 349.285C170.622 348.801 169.875 348.559 168.88 348.559C168.194 348.559 167.542 348.673 166.923 348.902C166.304 349.13 165.78 349.433 165.349 349.809L164.704 348.74C165.242 348.283 165.887 347.933 166.641 347.691C167.394 347.436 168.187 347.308 169.021 347.308C170.393 347.308 171.449 347.651 172.188 348.337C172.942 349.009 173.318 350.038 173.318 351.423V358H171.946ZM168.295 358.101C167.501 358.101 166.809 357.973 166.217 357.718C165.639 357.449 165.195 357.085 164.885 356.628C164.576 356.157 164.421 355.619 164.421 355.014C164.421 354.463 164.549 353.965 164.805 353.521C165.074 353.064 165.504 352.701 166.096 352.432C166.701 352.15 167.508 352.008 168.517 352.008H172.168V353.078H168.557C167.535 353.078 166.822 353.259 166.419 353.622C166.029 353.985 165.834 354.436 165.834 354.974C165.834 355.579 166.069 356.063 166.54 356.426C167.01 356.79 167.669 356.971 168.517 356.971C169.324 356.971 170.016 356.79 170.595 356.426C171.186 356.05 171.617 355.512 171.886 354.813L172.209 355.801C171.94 356.5 171.469 357.059 170.796 357.475C170.137 357.892 169.304 358.101 168.295 358.101ZM80.8723 375.193H88.3367V376.464H80.8723V375.193ZM81.0337 381.709H89.5269V383H79.5408V368.878H89.2243V370.169H81.0337V381.709ZM108.187 372.308C109.047 372.308 109.794 372.476 110.426 372.812C111.072 373.135 111.569 373.633 111.919 374.305C112.282 374.978 112.464 375.825 112.464 376.847V383H111.031V376.988C111.031 375.872 110.762 375.031 110.224 374.466C109.7 373.888 108.953 373.599 107.985 373.599C107.259 373.599 106.627 373.754 106.089 374.063C105.564 374.359 105.154 374.796 104.858 375.374C104.576 375.939 104.434 376.625 104.434 377.432V383H103.002V376.988C103.002 375.872 102.733 375.031 102.195 374.466C101.657 373.888 100.904 373.599 99.9356 373.599C99.2227 373.599 98.5974 373.754 98.0594 374.063C97.5214 374.359 97.1045 374.796 96.8086 375.374C96.5262 375.939 96.3849 376.625 96.3849 377.432V383H94.9526V372.409H96.3244V375.273L96.1025 374.769C96.4253 374.002 96.9431 373.404 97.6559 372.974C98.3822 372.53 99.2362 372.308 100.218 372.308C101.254 372.308 102.135 372.57 102.861 373.095C103.587 373.606 104.058 374.379 104.273 375.415L103.708 375.193C104.017 374.332 104.562 373.639 105.342 373.115C106.136 372.577 107.084 372.308 108.187 372.308ZM122.884 383.101C121.862 383.101 120.941 382.872 120.121 382.415C119.314 381.944 118.675 381.305 118.204 380.498C117.733 379.678 117.498 378.743 117.498 377.694C117.498 376.632 117.733 375.697 118.204 374.89C118.675 374.083 119.314 373.451 120.121 372.994C120.927 372.536 121.849 372.308 122.884 372.308C123.933 372.308 124.861 372.536 125.668 372.994C126.489 373.451 127.128 374.083 127.585 374.89C128.056 375.697 128.291 376.632 128.291 377.694C128.291 378.743 128.056 379.678 127.585 380.498C127.128 381.305 126.489 381.944 125.668 382.415C124.848 382.872 123.92 383.101 122.884 383.101ZM122.884 381.83C123.651 381.83 124.33 381.662 124.922 381.326C125.514 380.976 125.978 380.492 126.314 379.873C126.664 379.241 126.838 378.515 126.838 377.694C126.838 376.86 126.664 376.134 126.314 375.515C125.978 374.897 125.514 374.419 124.922 374.083C124.33 373.733 123.658 373.559 122.905 373.559C122.151 373.559 121.479 373.733 120.887 374.083C120.295 374.419 119.825 374.897 119.475 375.515C119.125 376.134 118.95 376.86 118.95 377.694C118.95 378.515 119.125 379.241 119.475 379.873C119.825 380.492 120.295 380.976 120.887 381.326C121.479 381.662 122.145 381.83 122.884 381.83ZM137.832 383.101C136.783 383.101 135.842 382.872 135.008 382.415C134.187 381.944 133.542 381.305 133.071 380.498C132.6 379.678 132.365 378.743 132.365 377.694C132.365 376.632 132.6 375.697 133.071 374.89C133.542 374.083 134.187 373.451 135.008 372.994C135.842 372.536 136.783 372.308 137.832 372.308C138.733 372.308 139.547 372.483 140.273 372.832C141 373.182 141.571 373.707 141.988 374.406L140.919 375.132C140.556 374.594 140.105 374.197 139.567 373.942C139.029 373.686 138.444 373.559 137.812 373.559C137.059 373.559 136.38 373.733 135.775 374.083C135.169 374.419 134.692 374.897 134.342 375.515C133.992 376.134 133.818 376.86 133.818 377.694C133.818 378.528 133.992 379.254 134.342 379.873C134.692 380.492 135.169 380.976 135.775 381.326C136.38 381.662 137.059 381.83 137.812 381.83C138.444 381.83 139.029 381.702 139.567 381.447C140.105 381.191 140.556 380.801 140.919 380.277L141.988 381.003C141.571 381.689 141 382.213 140.273 382.576C139.547 382.926 138.733 383.101 137.832 383.101ZM146.863 383V372.409H148.296V383H146.863ZM147.59 370.069C147.294 370.069 147.045 369.968 146.843 369.766C146.641 369.564 146.541 369.322 146.541 369.04C146.541 368.757 146.641 368.522 146.843 368.334C147.045 368.132 147.294 368.031 147.59 368.031C147.886 368.031 148.134 368.125 148.336 368.313C148.538 368.502 148.639 368.737 148.639 369.019C148.639 369.315 148.538 369.564 148.336 369.766C148.148 369.968 147.899 370.069 147.59 370.069ZM158.818 383.101C157.795 383.101 156.874 382.872 156.054 382.415C155.247 381.944 154.608 381.305 154.137 380.498C153.666 379.678 153.431 378.743 153.431 377.694C153.431 376.632 153.666 375.697 154.137 374.89C154.608 374.083 155.247 373.451 156.054 372.994C156.861 372.536 157.782 372.308 158.818 372.308C159.867 372.308 160.795 372.536 161.602 372.994C162.422 373.451 163.061 374.083 163.518 374.89C163.989 375.697 164.224 376.632 164.224 377.694C164.224 378.743 163.989 379.678 163.518 380.498C163.061 381.305 162.422 381.944 161.602 382.415C160.781 382.872 159.853 383.101 158.818 383.101ZM158.818 381.83C159.584 381.83 160.263 381.662 160.855 381.326C161.447 380.976 161.911 380.492 162.247 379.873C162.597 379.241 162.772 378.515 162.772 377.694C162.772 376.86 162.597 376.134 162.247 375.515C161.911 374.897 161.447 374.419 160.855 374.083C160.263 373.733 159.591 373.559 158.838 373.559C158.085 373.559 157.412 373.733 156.82 374.083C156.229 374.419 155.758 374.897 155.408 375.515C155.058 376.134 154.884 376.86 154.884 377.694C154.884 378.515 155.058 379.241 155.408 379.873C155.758 380.492 156.229 380.976 156.82 381.326C157.412 381.662 158.078 381.83 158.818 381.83ZM174.774 372.308C175.635 372.308 176.388 372.476 177.034 372.812C177.693 373.135 178.204 373.633 178.567 374.305C178.943 374.978 179.132 375.825 179.132 376.847V383H177.699V376.988C177.699 375.872 177.417 375.031 176.852 374.466C176.301 373.888 175.521 373.599 174.512 373.599C173.759 373.599 173.1 373.754 172.535 374.063C171.983 374.359 171.553 374.796 171.244 375.374C170.948 375.939 170.8 376.625 170.8 377.432V383H169.368V372.409H170.739V375.314L170.517 374.769C170.854 374.002 171.392 373.404 172.131 372.974C172.871 372.53 173.752 372.308 174.774 372.308ZM191.857 383V380.66L191.797 380.277V376.363C191.797 375.462 191.541 374.769 191.03 374.285C190.532 373.801 189.786 373.559 188.791 373.559C188.105 373.559 187.452 373.673 186.834 373.902C186.215 374.13 185.691 374.433 185.26 374.809L184.615 373.74C185.153 373.283 185.798 372.933 186.551 372.691C187.304 372.436 188.098 372.308 188.932 372.308C190.304 372.308 191.359 372.651 192.099 373.337C192.852 374.009 193.229 375.038 193.229 376.423V383H191.857ZM188.206 383.101C187.412 383.101 186.719 382.973 186.128 382.718C185.549 382.449 185.106 382.085 184.796 381.628C184.487 381.157 184.332 380.619 184.332 380.014C184.332 379.463 184.46 378.965 184.715 378.521C184.984 378.064 185.415 377.701 186.007 377.432C186.612 377.15 187.419 377.008 188.427 377.008H192.079V378.078H188.468C187.446 378.078 186.733 378.259 186.329 378.622C185.939 378.985 185.744 379.436 185.744 379.974C185.744 380.579 185.98 381.063 186.45 381.426C186.921 381.79 187.58 381.971 188.427 381.971C189.234 381.971 189.927 381.79 190.505 381.426C191.097 381.05 191.528 380.512 191.797 379.813L192.119 380.801C191.85 381.5 191.38 382.059 190.707 382.475C190.048 382.892 189.214 383.101 188.206 383.101ZM199.338 383V368.031H200.771V383H199.338Z" fill="white"></path><path d="M194.063 157V144.4H195.161L203.855 155.344H203.279V144.4H204.593V157H203.495L194.819 146.056H195.395V157H194.063ZM214.43 157.09C213.446 157.09 212.582 156.886 211.838 156.478C211.094 156.058 210.512 155.488 210.092 154.768C209.672 154.036 209.462 153.202 209.462 152.266C209.462 151.33 209.66 150.502 210.056 149.782C210.464 149.062 211.016 148.498 211.712 148.09C212.42 147.67 213.212 147.46 214.088 147.46C214.976 147.46 215.762 147.664 216.446 148.072C217.142 148.468 217.688 149.032 218.084 149.764C218.48 150.484 218.678 151.318 218.678 152.266C218.678 152.326 218.672 152.392 218.66 152.464C218.66 152.524 218.66 152.59 218.66 152.662H210.434V151.708H217.976L217.472 152.086C217.472 151.402 217.322 150.796 217.022 150.268C216.734 149.728 216.338 149.308 215.834 149.008C215.33 148.708 214.748 148.558 214.088 148.558C213.44 148.558 212.858 148.708 212.342 149.008C211.826 149.308 211.424 149.728 211.136 150.268C210.848 150.808 210.704 151.426 210.704 152.122V152.32C210.704 153.04 210.86 153.676 211.172 154.228C211.496 154.768 211.94 155.194 212.504 155.506C213.08 155.806 213.734 155.956 214.466 155.956C215.042 155.956 215.576 155.854 216.068 155.65C216.572 155.446 217.004 155.134 217.364 154.714L218.084 155.542C217.664 156.046 217.136 156.43 216.5 156.694C215.876 156.958 215.186 157.09 214.43 157.09ZM227.165 157.09C226.361 157.09 225.659 156.94 225.059 156.64C224.459 156.34 223.991 155.89 223.655 155.29C223.331 154.69 223.169 153.94 223.169 153.04V147.55H224.447V152.896C224.447 153.904 224.693 154.666 225.185 155.182C225.689 155.686 226.391 155.938 227.291 155.938C227.951 155.938 228.521 155.806 229.001 155.542C229.493 155.266 229.865 154.87 230.117 154.354C230.381 153.838 230.513 153.22 230.513 152.5V147.55H231.791V157H230.567V154.408L230.765 154.876C230.465 155.572 229.997 156.118 229.361 156.514C228.737 156.898 228.005 157.09 227.165 157.09ZM237.333 157V147.55H238.557V150.124L238.431 149.674C238.695 148.954 239.139 148.408 239.763 148.036C240.387 147.652 241.161 147.46 242.085 147.46V148.702C242.037 148.702 241.989 148.702 241.941 148.702C241.893 148.69 241.845 148.684 241.797 148.684C240.801 148.684 240.021 148.99 239.457 149.602C238.893 150.202 238.611 151.06 238.611 152.176V157H237.333ZM250.161 157.09C249.249 157.09 248.427 156.886 247.695 156.478C246.975 156.058 246.405 155.488 245.985 154.768C245.565 154.036 245.355 153.202 245.355 152.266C245.355 151.318 245.565 150.484 245.985 149.764C246.405 149.044 246.975 148.48 247.695 148.072C248.415 147.664 249.237 147.46 250.161 147.46C251.097 147.46 251.925 147.664 252.645 148.072C253.377 148.48 253.947 149.044 254.355 149.764C254.775 150.484 254.985 151.318 254.985 152.266C254.985 153.202 254.775 154.036 254.355 154.768C253.947 155.488 253.377 156.058 252.645 156.478C251.913 156.886 251.085 157.09 250.161 157.09ZM250.161 155.956C250.845 155.956 251.451 155.806 251.979 155.506C252.507 155.194 252.921 154.762 253.221 154.21C253.533 153.646 253.689 152.998 253.689 152.266C253.689 151.522 253.533 150.874 253.221 150.322C252.921 149.77 252.507 149.344 251.979 149.044C251.451 148.732 250.851 148.576 250.179 148.576C249.507 148.576 248.907 148.732 248.379 149.044C247.851 149.344 247.431 149.77 247.119 150.322C246.807 150.874 246.651 151.522 246.651 152.266C246.651 152.998 246.807 153.646 247.119 154.21C247.431 154.762 247.851 155.194 248.379 155.506C248.907 155.806 249.501 155.956 250.161 155.956ZM263.498 157.09C262.562 157.09 261.722 156.886 260.978 156.478C260.246 156.058 259.67 155.488 259.25 154.768C258.83 154.036 258.62 153.202 258.62 152.266C258.62 151.318 258.83 150.484 259.25 149.764C259.67 149.044 260.246 148.48 260.978 148.072C261.722 147.664 262.562 147.46 263.498 147.46C264.302 147.46 265.028 147.616 265.676 147.928C266.324 148.24 266.834 148.708 267.206 149.332L266.252 149.98C265.928 149.5 265.526 149.146 265.046 148.918C264.566 148.69 264.044 148.576 263.48 148.576C262.808 148.576 262.202 148.732 261.662 149.044C261.122 149.344 260.696 149.77 260.384 150.322C260.072 150.874 259.916 151.522 259.916 152.266C259.916 153.01 260.072 153.658 260.384 154.21C260.696 154.762 261.122 155.194 261.662 155.506C262.202 155.806 262.808 155.956 263.48 155.956C264.044 155.956 264.566 155.842 265.046 155.614C265.526 155.386 265.928 155.038 266.252 154.57L267.206 155.218C266.834 155.83 266.324 156.298 265.676 156.622C265.028 156.934 264.302 157.09 263.498 157.09ZM271.556 157V147.55H272.834V157H271.556ZM272.204 145.462C271.94 145.462 271.718 145.372 271.538 145.192C271.358 145.012 271.268 144.796 271.268 144.544C271.268 144.292 271.358 144.082 271.538 143.914C271.718 143.734 271.94 143.644 272.204 143.644C272.468 143.644 272.69 143.728 272.87 143.896C273.05 144.064 273.14 144.274 273.14 144.526C273.14 144.79 273.05 145.012 272.87 145.192C272.702 145.372 272.48 145.462 272.204 145.462ZM282.384 157.09C281.4 157.09 280.536 156.886 279.792 156.478C279.048 156.058 278.466 155.488 278.046 154.768C277.626 154.036 277.416 153.202 277.416 152.266C277.416 151.33 277.614 150.502 278.01 149.782C278.418 149.062 278.97 148.498 279.666 148.09C280.374 147.67 281.166 147.46 282.042 147.46C282.93 147.46 283.716 147.664 284.4 148.072C285.096 148.468 285.642 149.032 286.038 149.764C286.434 150.484 286.632 151.318 286.632 152.266C286.632 152.326 286.626 152.392 286.614 152.464C286.614 152.524 286.614 152.59 286.614 152.662H278.388V151.708H285.93L285.426 152.086C285.426 151.402 285.276 150.796 284.976 150.268C284.688 149.728 284.292 149.308 283.788 149.008C283.284 148.708 282.702 148.558 282.042 148.558C281.394 148.558 280.812 148.708 280.296 149.008C279.78 149.308 279.378 149.728 279.09 150.268C278.802 150.808 278.658 151.426 278.658 152.122V152.32C278.658 153.04 278.814 153.676 279.126 154.228C279.45 154.768 279.894 155.194 280.458 155.506C281.034 155.806 281.688 155.956 282.42 155.956C282.996 155.956 283.53 155.854 284.022 155.65C284.526 155.446 284.958 155.134 285.318 154.714L286.038 155.542C285.618 156.046 285.09 156.43 284.454 156.694C283.83 156.958 283.14 157.09 282.384 157.09ZM279.054 146.074L281.376 143.842H282.672L284.994 146.074H283.806L281.52 144.166H282.528L280.242 146.074H279.054ZM296.037 147.46C296.805 147.46 297.477 147.61 298.053 147.91C298.641 148.198 299.097 148.642 299.421 149.242C299.757 149.842 299.925 150.598 299.925 151.51V157H298.647V151.636C298.647 150.64 298.395 149.89 297.891 149.386C297.399 148.87 296.703 148.612 295.803 148.612C295.131 148.612 294.543 148.75 294.039 149.026C293.547 149.29 293.163 149.68 292.887 150.196C292.623 150.7 292.491 151.312 292.491 152.032V157H291.213V147.55H292.437V150.142L292.239 149.656C292.539 148.972 293.019 148.438 293.679 148.054C294.339 147.658 295.125 147.46 296.037 147.46ZM309.282 157.09C308.346 157.09 307.506 156.886 306.762 156.478C306.03 156.058 305.454 155.488 305.034 154.768C304.614 154.036 304.404 153.202 304.404 152.266C304.404 151.318 304.614 150.484 305.034 149.764C305.454 149.044 306.03 148.48 306.762 148.072C307.506 147.664 308.346 147.46 309.282 147.46C310.086 147.46 310.812 147.616 311.46 147.928C312.108 148.24 312.618 148.708 312.99 149.332L312.036 149.98C311.712 149.5 311.31 149.146 310.83 148.918C310.35 148.69 309.828 148.576 309.264 148.576C308.592 148.576 307.986 148.732 307.446 149.044C306.906 149.344 306.48 149.77 306.168 150.322C305.856 150.874 305.7 151.522 305.7 152.266C305.7 153.01 305.856 153.658 306.168 154.21C306.48 154.762 306.906 155.194 307.446 155.506C307.986 155.806 308.592 155.956 309.264 155.956C309.828 155.956 310.35 155.842 310.83 155.614C311.31 155.386 311.712 155.038 312.036 154.57L312.99 155.218C312.618 155.83 312.108 156.298 311.46 156.622C310.812 156.934 310.086 157.09 309.282 157.09ZM317.339 157V147.55H318.617V157H317.339ZM317.987 145.462C317.723 145.462 317.501 145.372 317.321 145.192C317.141 145.012 317.051 144.796 317.051 144.544C317.051 144.292 317.141 144.082 317.321 143.914C317.501 143.734 317.723 143.644 317.987 143.644C318.251 143.644 318.473 143.728 318.653 143.896C318.833 144.064 318.923 144.274 318.923 144.526C318.923 144.79 318.833 145.012 318.653 145.192C318.485 145.372 318.263 145.462 317.987 145.462ZM330.075 157V154.912L330.021 154.57V151.078C330.021 150.274 329.793 149.656 329.337 149.224C328.893 148.792 328.227 148.576 327.339 148.576C326.727 148.576 326.145 148.678 325.593 148.882C325.041 149.086 324.573 149.356 324.189 149.692L323.613 148.738C324.093 148.33 324.669 148.018 325.341 147.802C326.013 147.574 326.721 147.46 327.465 147.46C328.689 147.46 329.631 147.766 330.291 148.378C330.963 148.978 331.299 149.896 331.299 151.132V157H330.075ZM326.817 157.09C326.109 157.09 325.491 156.976 324.963 156.748C324.447 156.508 324.051 156.184 323.775 155.776C323.499 155.356 323.361 154.876 323.361 154.336C323.361 153.844 323.475 153.4 323.703 153.004C323.943 152.596 324.327 152.272 324.855 152.032C325.395 151.78 326.115 151.654 327.015 151.654H330.273V152.608H327.051C326.139 152.608 325.503 152.77 325.143 153.094C324.795 153.418 324.621 153.82 324.621 154.3C324.621 154.84 324.831 155.272 325.251 155.596C325.671 155.92 326.259 156.082 327.015 156.082C327.735 156.082 328.353 155.92 328.869 155.596C329.397 155.26 329.781 154.78 330.021 154.156L330.309 155.038C330.069 155.662 329.649 156.16 329.049 156.532C328.461 156.904 327.717 157.09 326.817 157.09ZM225.623 179L231.383 166.4H232.697L238.457 179H237.053L231.761 167.174H232.301L227.009 179H225.623ZM227.891 175.634L228.287 174.554H235.613L236.009 175.634H227.891ZM242.468 179V168.362C242.468 167.522 242.714 166.844 243.206 166.328C243.698 165.812 244.406 165.554 245.33 165.554C245.69 165.554 246.038 165.602 246.374 165.698C246.71 165.794 246.992 165.944 247.22 166.148L246.788 167.102C246.608 166.946 246.398 166.832 246.158 166.76C245.918 166.676 245.66 166.634 245.384 166.634C244.844 166.634 244.43 166.784 244.142 167.084C243.854 167.384 243.71 167.828 243.71 168.416V169.856L243.746 170.45V179H242.468ZM240.776 170.612V169.55H246.626V170.612H240.776ZM254.187 179.09C253.203 179.09 252.339 178.886 251.595 178.478C250.851 178.058 250.269 177.488 249.849 176.768C249.429 176.036 249.219 175.202 249.219 174.266C249.219 173.33 249.417 172.502 249.813 171.782C250.221 171.062 250.773 170.498 251.469 170.09C252.177 169.67 252.969 169.46 253.845 169.46C254.733 169.46 255.519 169.664 256.203 170.072C256.899 170.468 257.445 171.032 257.841 171.764C258.237 172.484 258.435 173.318 258.435 174.266C258.435 174.326 258.429 174.392 258.417 174.464C258.417 174.524 258.417 174.59 258.417 174.662H250.191V173.708H257.733L257.229 174.086C257.229 173.402 257.079 172.796 256.779 172.268C256.491 171.728 256.095 171.308 255.591 171.008C255.087 170.708 254.505 170.558 253.845 170.558C253.197 170.558 252.615 170.708 252.099 171.008C251.583 171.308 251.181 171.728 250.893 172.268C250.605 172.808 250.461 173.426 250.461 174.122V174.32C250.461 175.04 250.617 175.676 250.929 176.228C251.253 176.768 251.697 177.194 252.261 177.506C252.837 177.806 253.491 177.956 254.223 177.956C254.799 177.956 255.333 177.854 255.825 177.65C256.329 177.446 256.761 177.134 257.121 176.714L257.841 177.542C257.421 178.046 256.893 178.43 256.257 178.694C255.633 178.958 254.943 179.09 254.187 179.09ZM266.004 179.09C265.116 179.09 264.432 178.85 263.952 178.37C263.472 177.89 263.232 177.212 263.232 176.336V167.462H264.51V176.264C264.51 176.816 264.648 177.242 264.924 177.542C265.212 177.842 265.62 177.992 266.148 177.992C266.712 177.992 267.18 177.83 267.552 177.506L268.002 178.424C267.75 178.652 267.444 178.82 267.084 178.928C266.736 179.036 266.376 179.09 266.004 179.09ZM261.54 170.612V169.55H267.39V170.612H261.54ZM272.309 179V169.55H273.587V179H272.309ZM272.957 167.462C272.693 167.462 272.471 167.372 272.291 167.192C272.111 167.012 272.021 166.796 272.021 166.544C272.021 166.292 272.111 166.082 272.291 165.914C272.471 165.734 272.693 165.644 272.957 165.644C273.221 165.644 273.443 165.728 273.623 165.896C273.803 166.064 273.893 166.274 273.893 166.526C273.893 166.79 273.803 167.012 273.623 167.192C273.455 167.372 273.233 167.462 272.957 167.462ZM281.553 179L277.359 169.55H278.691L282.543 178.316H281.913L285.819 169.55H287.079L282.867 179H281.553ZM296.499 179V176.912L296.445 176.57V173.078C296.445 172.274 296.217 171.656 295.761 171.224C295.317 170.792 294.651 170.576 293.763 170.576C293.151 170.576 292.569 170.678 292.017 170.882C291.465 171.086 290.997 171.356 290.613 171.692L290.037 170.738C290.517 170.33 291.093 170.018 291.765 169.802C292.437 169.574 293.145 169.46 293.889 169.46C295.113 169.46 296.055 169.766 296.715 170.378C297.387 170.978 297.723 171.896 297.723 173.132V179H296.499ZM293.241 179.09C292.533 179.09 291.915 178.976 291.387 178.748C290.871 178.508 290.475 178.184 290.199 177.776C289.923 177.356 289.785 176.876 289.785 176.336C289.785 175.844 289.899 175.4 290.127 175.004C290.367 174.596 290.751 174.272 291.279 174.032C291.819 173.78 292.539 173.654 293.439 173.654H296.697V174.608H293.475C292.563 174.608 291.927 174.77 291.567 175.094C291.219 175.418 291.045 175.82 291.045 176.3C291.045 176.84 291.255 177.272 291.675 177.596C292.095 177.92 292.683 178.082 293.439 178.082C294.159 178.082 294.777 177.92 295.293 177.596C295.821 177.26 296.205 176.78 296.445 176.156L296.733 177.038C296.493 177.662 296.073 178.16 295.473 178.532C294.885 178.904 294.141 179.09 293.241 179.09Z" fill="white"></path><circle cx="470.413" cy="265.239" r="6.93478" fill="#151F48"></circle><circle cx="470.413" cy="265.239" r="7.25" stroke="white" stroke-opacity="0.4" stroke-width="0.630435"></circle><circle cx="54.3261" cy="265.239" r="6.93478" fill="#151F48"></circle><circle cx="54.3261" cy="265.239" r="7.25" stroke="white" stroke-opacity="0.4" stroke-width="0.630435"></circle><circle cx="269.935" cy="472.022" r="6.93478" fill="#151F48"></circle><circle cx="269.935" cy="472.022" r="7.25" stroke="white" stroke-opacity="0.4" stroke-width="0.630435"></circle></svg>